<?xml version="1.0" encoding="UTF-8"?>
<svg width="1000px" height="1000px" viewBox="0 0 1000 1000" version="1.1" xmlns="http://www.w3.org/2000/svg"
     xmlns:xlink="http://www.w3.org/1999/xlink">

    <g id="1000个上传" stroke="none" stroke-width="1" fill="none" fill-rule="evenodd">
        <g id="13" transform="translate(-4524.000000, -2533.000000)">
            <g id="编组-163" transform="translate(4524.000000, 2533.000000)">
                <rect id="矩形备份-143" x="0" y="0" width="1000" height="1000"></rect>
                <g id="编组" transform="translate(64.000000, 252.000000)" fill-rule="nonzero">
                    <g transform="translate(0.000000, 56.000000)" id="路径">
                        <path d="M521.275619,203.370102 C521.275619,203.370102 548.765162,224.373925 528.741637,270.763261 C508.718112,317.149383 453.690796,371.256081 357.421932,414.287247 C261.148245,457.324841 113.650988,453.936142 58.6719027,414.139424 C3.69281711,374.339492 -12.3774484,322.5096 9.33091445,272.660868 C32.4749263,219.51181 60.7811652,196.828902 111.348805,166.857641 C139.507139,150.16802 170.686283,139.552027 213.631962,132.094963 L521.275619,203.370102 Z"
                              fill="#DF584C"></path>
                        <path d="M521.275619,203.370102 C521.275619,203.370102 548.765162,224.373925 528.741637,270.763261 C508.718112,317.149383 453.690796,371.256081 357.421932,414.287247 C261.148245,457.324841 113.650988,453.936142 58.6719027,414.139424 C30.1663127,393.501946 9.51258112,363.591742 2.7089233,330.218929 C2.7089233,330.218929 12.9111947,413.136793 69.1426549,441.334169 C125.374115,469.531546 196.875221,481.691654 278.440339,468.477498 C360.005457,455.264949 404.071681,428.449403 462.214661,385.395742 C520.356032,342.346902 577.497434,258.082556 521.275619,203.370102 Z"
                              fill="#F2B643"></path>
                        <path d="M521.275619,203.370102 L213.630354,132.098176 C213.630354,132.098176 272.315118,134.285003 297.951018,132.098176 C328.401888,129.500014 346.314543,133.089559 376.984056,97.2728339 C407.650354,61.4561085 469.243392,1.93616949 469.243392,1.93616949 C469.243392,1.93616949 490.490354,-2.54513898 508.218127,7.10839322 C525.942684,16.7619254 525.941077,25.435322 525.941077,25.435322 C525.941077,25.435322 530.058319,28.0142034 533.087168,33.5672339 C533.087168,33.5672339 531.481106,38.3152678 518.08118,51.4555119 C504.674823,64.5957559 460.431755,111.255031 450.237522,123.579031 C440.041681,135.903031 430.193097,152.824027 447.572006,166.550746 C464.952522,180.275858 521.275619,203.370102 521.275619,203.370102 Z"
                              fill="#EB8923"></path>
                        <path d="M525.942684,25.435322 C525.942684,25.435322 525.942684,16.7619254 508.219735,7.10839322 C490.491962,-2.54513898 469.245,1.93616949 469.245,1.93616949 C469.245,1.93616949 407.651962,61.4561085 376.985664,97.2728339 L333.205605,143.217092 L320.050044,156.752603 L389.448319,172.830041 L428.371608,131.379946 L525.942684,25.435322 Z"
                              fill="#D27228"></path>
                        <path d="M448.05913,149.216807 C451.61208,140.043702 471.598628,121.782651 471.598628,121.782651 C471.598628,121.782651 528.021401,62.6515525 534.439218,55.2362644 C540.860251,47.8177627 533.088776,33.5672339 533.088776,33.5672339 C533.088776,33.5672339 531.482714,38.3152678 518.082788,51.4555119 C504.676431,64.5957559 460.433363,111.255031 450.23913,123.579031 C440.043289,135.903031 430.194705,152.824027 447.573614,166.550746 C447.572006,166.549139 442.70559,163.038325 448.05913,149.216807 Z"
                              fill="#D27228"></path>
                        <path d="M382.07233,160.253776 C382.07233,160.253776 373.011504,146.310142 339.289027,144.939559 C339.289027,144.939559 346.414218,127.252129 369.117729,133.393241 C396.581549,140.82299 382.07233,160.253776 382.07233,160.253776 Z"
                              fill="#2D404E" opacity="0.07"></path>
                        <path d="M513.160103,10.0584407 C525.941077,18.4618983 525.941077,25.435322 525.941077,25.435322 L428.37,131.379946 L389.446711,172.830041 L377.408481,170.043885 L513.160103,10.0584407 Z"
                              fill="#2D404E" opacity="0.07"></path>
                        <path d="M364.415295,110.462888 C340.877404,132.180122 324.003304,129.876 297.951018,132.098176 C272.315118,134.285003 213.630354,132.098176 213.630354,132.098176 L320.048437,156.752603 L333.203997,143.217092 L364.415295,110.462888 Z"
                              fill="#D27228" opacity="0.62"></path>
                        <path d="M376.984056,97.2728339 L364.415295,110.462888 C368.391062,106.79461 372.551711,102.448271 376.984056,97.2728339 Z"
                              fill="#D27228"></path>
                        <polygon fill="#D27228" points="320.048437 156.752603 363.598599 166.841573"></polygon>
                        <path d="M243.486386,139.015363 L213.630354,132.098176 C170.684676,139.555241 139.505531,150.171234 111.347198,166.860854 C60.7795575,196.830508 32.4733186,219.515024 9.32930678,272.664081 C-12.379056,322.511207 3.69120944,374.342705 58.670295,414.142637 C113.649381,453.939356 261.146637,457.328054 357.420324,414.290461 C357.420324,414.290461 210.934292,460.636414 119.059189,411.109037 C27.1856932,361.578447 40.0599115,258.612793 119.059189,196.833722 C198.060074,135.048224 243.486386,139.015363 243.486386,139.015363 Z"
                              fill="#B9483E" opacity="0.31"></path>
                        <path d="M493.345575,9.006 C493.345575,9.006 485.812035,5.67032542 471.166165,5.24934915 L448.152375,28.6697695 C448.152375,28.6713763 468.656593,11.0899932 493.345575,9.006 Z"
                              fill="#EB8923" opacity="0.6"></path>
                    </g>
                    <path d="M271.709695,285 C271.709695,285 242.707635,400.664391 346.886084,475 C346.886084,475 389.18984,455.189802 394,452.57745 L271.709695,285 Z"
                          id="路径" fill="#B9483E"></path>
                    <g transform="translate(242.000000, 0.000000)" id="路径">
                        <path d="M51.513442,220.280046 C51.513442,220.280046 23.2060552,244.694954 43.7930994,298.66078 C64.3801436,352.626606 120.994917,415.586468 220.071575,465.699083 C319.146624,515.808486 470.977884,511.955275 527.59105,465.699083 C584.205823,419.441284 590.025823,394.405046 571.691215,334.659404 C553.356608,274.913761 495.458862,230.587385 467.47463,209.386697 C439.490398,188.18922 386.417464,161.205505 323.693298,155.424083 L51.513442,220.280046 Z"
                              fill="#2D404E"></path>
                        <path d="M51.513442,220.280046 C51.513442,220.280046 23.2060552,244.694954 43.7930994,298.66078 C64.3801436,352.626606 120.994917,415.586468 220.071575,465.699083 C319.146624,515.808486 470.977884,511.955275 527.59105,465.699083 C556.945072,441.71445 572.644602,423.43578 578.401901,403.065138 C578.401901,403.065138 580.376199,455.112385 522.478453,487.877523 C464.577492,520.63945 399.925652,533.167202 315.974564,517.747936 C232.02026,502.32867 179.911967,477.274771 120.083331,427.165367 C60.2563039,377.06078 -6.38751934,283.88211 51.513442,220.280046 Z"
                              fill="#F2B643"></path>
                        <path d="M51.513442,220.280046 L323.693298,155.424083 C323.693298,155.424083 269.609099,156.677982 245.161884,148.969954 C220.714669,141.258716 192.407282,136.119495 159.595022,98.8573394 C126.785978,61.5951835 61.8061602,0.560321101 61.8061602,0.560321101 C61.8061602,0.560321101 40.5760221,-2.65068807 23.8507569,9.5543578 C7.12388398,21.7626147 7.76537017,31.3972477 7.76537017,31.3972477 C7.76537017,31.3972477 3.90680663,34.6114679 1.3328232,41.0334862 C1.3328232,41.0334862 3.26210497,46.1759174 17.4166022,59.665367 C31.5710994,73.1580275 78.5346409,121.342431 89.470453,134.189679 C100.407873,147.040138 111.343685,165.029817 95.2615138,181.730275 C79.1777348,198.437156 51.513442,220.280046 51.513442,220.280046 Z"
                              fill="#EB8923"></path>
                        <path d="M7.76537017,31.3988532 C7.76537017,31.3988532 7.12388398,21.7626147 23.8507569,9.5559633 C40.5760221,-2.64908257 61.8061602,0.561926606 61.8061602,0.561926606 C61.8061602,0.561926606 126.785978,61.596789 159.595022,98.858945 L208.061796,150.469495 L233.137635,177.000459 L162.513061,193.829358 L111.559122,141.045183 L7.76537017,31.3988532 Z"
                              fill="#D27228"></path>
                        <path d="M97.1023702,160.070413 C92.9319061,150.167661 75.9622652,133.761009 75.9622652,133.761009 C75.9622652,133.761009 11.6271492,67.3766055 4.76533702,59.6669725 C-2.09647514,51.9573394 1.33443094,41.0350917 1.33443094,41.0350917 C1.33443094,41.0350917 3.26371271,46.1775229 17.4182099,59.6669725 C31.5727072,73.159633 78.5362486,121.344037 89.4720608,134.191284 C100.409481,147.041743 111.345293,165.031422 95.2631215,181.731881 C95.2615138,181.731881 103.388491,174.987156 97.1023702,160.070413 Z"
                              fill="#D27228"></path>
                        <path d="M166.458442,177.87867 C166.458442,177.87867 178.468221,162.030734 215.782138,165.887156 C215.782138,165.887156 210.524845,142.713303 184.641923,146.611468 C153.331287,151.322018 166.458442,177.87867 166.458442,177.87867 Z"
                              fill="#2D404E" opacity="0.07"></path>
                        <path d="M19.2044033,13.2454128 C7.24767956,23.6490826 7.76537017,31.3988532 7.76537017,31.3988532 L111.559122,141.046789 L162.513061,193.830963 L174.347597,191.011697 L19.2044033,13.2454128 Z"
                              fill="#2D404E" opacity="0.07"></path>
                        <path d="M49.6404309,13.2454128 C42.5647901,8.0146789 52.1018729,5.96123853 62.2354254,8.27155963 L176.752768,123.055505 L167.638519,116.524312 C167.638519,116.524312 91.0572873,37.1594037 49.6404309,13.2454128 Z"
                              fill="#EB8923" opacity="0.6"></path>
                        <path d="M220.071575,465.699083 C319.146624,515.808486 470.977884,511.955275 527.59105,465.699083 C584.205823,419.441284 590.025823,394.405046 571.691215,334.659404 C553.356608,274.913761 495.458862,230.587385 467.47463,209.386697 C439.490398,188.18922 386.417464,161.205505 323.693298,155.424083 C323.693298,155.424083 447.431,180.319037 499.216138,290.263991 C551.001276,400.207339 495.425099,461.845872 415.647691,486.257569 C335.873497,510.672477 220.071575,465.699083 220.071575,465.699083 Z"
                              fill="#253744"></path>
                    </g>
                    <path d="M469.559602,368.03277 C437.941213,368.466181 420.823306,410.82813 413,438.540775 C427.964084,448.122377 444.222394,457.421459 461.829661,466.312813 C493.171175,482.141959 529.784567,492.579147 567,498 C564.570912,475.213798 559.598445,439.728643 550.514718,415.048273 C536.134967,375.989882 516.581532,367.389074 469.559602,368.03277 Z"
                          id="路径" fill="#253744"></path>
                    <circle id="椭圆形" fill="#E2E5E7" cx="501.5" cy="326.5" r="73.5"></circle>
                    <path d="M573,347.219703 C561.522655,386.109353 520.431243,408.408773 481.218323,397.027177 C442.007016,385.645581 419.521545,344.88965 430.997278,306 C430.997278,306 433.046689,353.739692 475.399028,372.196204 C526.215064,394.334103 573,347.219703 573,347.219703 Z"
                          id="路径" fill="#D1D5D5"></path>
                </g>
            </g>
        </g>
    </g>
</svg>